# xmcd
# 
# Track frame offsets:
#     150
#     25443
#     46533
#     71793
#     91045
#     109670
#     125388
#     139683
#     165855
#     190688
#     204790
#     220678
# 
# Disc length: 3431
# 
# Revision: 2
# Processed by: cddbd v1.5.2PL0 Copyright (c) Steve Scherf et al.
# Submitted via: fre:ac v1.0.31
# 
DISCID=920d650c
DTITLE=Various Artist - Hoa Biển - Tuấn Vũ - Giáng Ngọc Productions
DYEAR=1990
DGENRE=Pop
TTITLE0=Tuấn Vũ - Như Mai - Quê Hương Bốn Mùa
TTITLE1=Tuấn Vũ - Mười Sáu Trăng Tròn
TTITLE2=Tuấn Vũ - Giao Linh - Một Loài Chim Biển
TTITLE3=Tuấn Vũ - Trăm Năm Bến Cũ
TTITLE4=Hương Lan - Hoa Biển
TTITLE5=Tuấn Vũ - Cô Bé Ngày Xưa
TTITLE6=Như Mai - Cô Bạn Học
TTITLE7=Tuấn Vũ - Giao Linh - Mùa Pense Nở
TTITLE8=Tuấn Vũ - Chuyện Một Người Đi
TTITLE9=Tuấn Vũ - Mộng Ước Mai Sau
TTITLE10=Tuấn Vũ - Tiễn Bước Sang Ngang
TTITLE11=Ngọc Lan - Tuấn Vũ - Người Chết Trở Về - Trần Thiện Thanh
EXTD=
EXTT0=
EXTT1=
EXTT2=
EXTT3=
EXTT4=
EXTT5=
EXTT6=
EXTT7=
EXTT8=
EXTT9=
EXTT10=
EXTT11=
PLAYORDER=
